# xmcd
#
# Track frame offsets:
#	182
#	29932
#	61697
#	103130
#	133462
#	181425
#
# Disc length: 2729 seconds
#
# Revision: 2
# Processed by: cddbd v1.5PL3 Copyright (c) Steve Scherf et al.
# Submitted via: dBpowerAMP V4.0
#
DISCID=5b0aa706
DTITLE=JeanLoupLongnon&HisNewYorkOrchestra - JeanLoupLongnon&HisNewYorkOrchestra;AtlanticJazz81829-2
DYEAR=1987
DGENRE=Big Band
TTITLE0=MomentsNotice~VousAllezJouerDuBop(JohnColtrane;1987,JeanLoupLongnon&HisNewYorkOrchestra)
TTITLE1=NathalieUnMatin{French~NathalieOneMorning}(1987,JeanLoupLongnon&HisNewYorkOrchestra)
TTITLE2=Torride(1987,JeanLoupLongnon&HisNewYorkOrchestra)
TTITLE3=BodyAndSoul(JGreen,RSour,EHayman,FEyton;1987,JeanLoupLongnon&HisNewYorkOrchestra)
TTITLE4=JazzA'Paris{French~JazzInParis}(1987,JeanLoupLongnon&HisNewYorkOrchestra)
TTITLE5=RoyalGardenBlues(Clarence&SpencerWilliams;1987,JeanLoupLongnon&HisNewYorkOrchestra)
EXTD=There are 3 different songs on the first track and they are:\n\nMoments Notice (:40]\nVous Allez Jouer Du Bop (5:52]\nNow you're Going To Play Bop
EXTT0=
EXTT1=
EXTT2=
EXTT3=
EXTT4=
EXTT5=
PLAYORDER=
